<?xml version="1.0" standalone="no"?>
<!DOCTYPE svg PUBLIC "-//W3C//DTD SVG 20010904//EN"
 "http://www.w3.org/TR/2001/REC-SVG-20010904/DTD/svg10.dtd">
<svg version="1.0" xmlns="http://www.w3.org/2000/svg"
 width="199.000000pt" height="314.000000pt" viewBox="0 0 199.000000 314.000000"
 preserveAspectRatio="xMidYMid meet">
<metadata>
Created by potrace 1.16, written by Peter Selinger 2001-2019
</metadata>
<g transform="translate(0.000000,314.000000) scale(0.100000,-0.100000)"
fill="#000000" stroke="none" fill="white">
<path d="M825 3064 c-179 -33 -343 -110 -463 -220 -66 -60 -128 -132 -120
-139 2 -2 110 -29 241 -61 211 -50 240 -55 255 -42 27 23 50 28 79 17 34 -13
52 -37 53 -72 0 -40 -15 -63 -50 -76 -41 -14 -75 0 -99 41 -20 31 -25 33 -263
90 -134 32 -246 58 -249 58 -10 0 -81 -152 -74 -158 4 -4 82 -25 175 -48 163
-39 168 -40 190 -22 50 41 130 3 130 -62 0 -41 -39 -80 -80 -80 -31 0 -80 40
-80 65 0 11 -91 35 -337 92 -19 4 -23 -2 -37 -66 -22 -98 -21 -109 11 -118 16
-4 163 -39 328 -78 296 -71 300 -72 324 -53 79 61 177 -47 106 -117 -32 -33
-78 -33 -110 0 -14 13 -25 30 -25 37 0 9 -99 37 -307 86 -170 40 -316 76 -326
78 -16 5 -17 -3 -15 -97 l3 -103 365 -92 c201 -50 372 -95 381 -98 37 -16 39
-47 13 -252 -13 -109 -24 -207 -24 -218 0 -15 23 -36 80 -73 44 -29 88 -53 98
-53 9 0 54 25 100 55 82 55 82 56 77 93 -11 77 -45 371 -45 390 0 53 17 59
410 156 l375 92 -1 139 c-1 109 -6 159 -23 225 -106 414 -480 703 -901 699
-47 0 -121 -7 -165 -15z"/>
<path d="M80 1928 c0 -7 14 -157 32 -333 l31 -319 -58 -238 c-47 -188 -57
-243 -50 -264 6 -16 163 -172 373 -371 l362 -344 0 48 c0 26 -18 347 -40 713
-22 366 -40 679 -40 696 0 62 -19 72 -210 109 -219 43 -215 40 -215 172 l0 96
-85 23 c-101 27 -100 27 -100 12z"/>
<path d="M1815 1917 l-80 -22 -3 -85 c-3 -108 -7 -127 -33 -141 -12 -6 -98
-26 -193 -45 -114 -23 -175 -39 -183 -50 -16 -21 -18 -49 -58 -744 -19 -333
-38 -643 -41 -690 l-7 -85 59 55 c147 136 603 567 642 606 56 57 55 72 -12
342 l-55 217 29 290 c16 160 31 309 34 333 7 49 11 48 -99 19z"/>
</g>
</svg>
